# xmcd
#
# Track frame offsets:
#	150
#	12457
#	22972
#	34290
#	46532
#	57712
#	69517
#	83880
#	96970
#	110127
#	124235
#	137947
#	147637
#	157247
#	169942
#	182555
#	193327
#	204972
#	219507
#	229215
#	239877
#
# Disc length: 3369 seconds
#
# Revision: 1
# Processed by: cddbd v1.5.2PL0 Copyright (c) Steve Scherf et al.
# Submitted via: audiograbber 1.83.01
#
DISCID=490d2715
DTITLE=Baby Washington - For Collectors Only CD2
DYEAR=1995
DGENRE=Soul
TTITLE0=That's How Heartaches Are Made
TTITLE1=Leave Me Alone
TTITLE2=You And The Night And The Music
TTITLE3=Hey Lonely One
TTITLE4=Doodlin'
TTITLE5=I Can't Wait Until I See My Baby's Face
TTITLE6=Who's Going To Take Care Of Me
TTITLE7=The Clock
TTITLE8=Standing On The Pier
TTITLE9=It'll Never Be Over For Me
TTITLE10=Move On Drifter
TTITLE11=Run My Heart
TTITLE12=Your Fool
TTITLE13=Only Those In Love
TTITLE14=The Ballad of Bobby Down
TTITLE15=No Time For Pity
TTITLE16=White Christmas
TTITLE17=Silent Night
TTITLE18=You Are What You Are
TTITLE19=Either You're With Me (Or Either You're Not)
TTITLE20=I Know
EXTD=
EXTT0=
EXTT1=
EXTT2=
EXTT3=
EXTT4=
EXTT5=
EXTT6=
EXTT7=
EXTT8=
EXTT9=
EXTT10=
EXTT11=
EXTT12=
EXTT13=
EXTT14=
EXTT15=
EXTT16=
EXTT17=
EXTT18=
EXTT19=
EXTT20=
PLAYORDER=
